<svg width="790" height="610" viewBox="0 0 790 610" fill="none" xmlns="http://www.w3.org/2000/svg">
<g clip-path="url(#clip0_1_2)">
<path d="M776 528.671C772.682 501.993 756.148 475.707 730.705 467.026C740.739 494.485 740.737 524.608 730.699 552.066C726.79 562.641 721.34 573.997 725.018 584.655C727.306 591.287 732.903 596.361 739.16 599.533C745.417 602.706 752.362 604.218 759.219 605.7L760.568 606.816C771.454 582.235 779.317 555.349 776 528.671Z" fill="#F0F0F0"/>
<path d="M730.453 467.53C745.27 484.132 754.479 504.98 756.772 527.114C757.35 531.87 757.175 536.687 756.253 541.389C755.207 545.94 752.962 550.127 749.75 553.517C746.819 556.737 743.447 559.692 741.35 563.569C740.306 565.57 739.696 567.769 739.562 570.021C739.427 572.274 739.77 574.529 740.568 576.64C742.419 581.951 746.069 586.28 749.785 590.389C753.911 594.952 758.269 599.626 760.023 605.675C760.236 606.408 761.361 606.035 761.148 605.303C758.097 594.779 747.881 588.801 743.009 579.323C740.736 574.9 739.781 569.765 741.913 565.096C743.776 561.013 747.25 557.963 750.246 554.728C753.428 551.467 755.763 547.477 757.047 543.106C758.205 538.466 758.566 533.664 758.113 528.903C757.264 518.17 754.732 507.637 750.611 497.69C745.971 486.311 739.418 475.81 731.237 466.641C730.73 466.074 729.95 466.966 730.453 467.53Z" fill="white"/>
<path d="M756.453 519.943C760.114 519.054 763.34 516.893 765.555 513.845C767.77 510.797 768.829 507.061 768.544 503.304C768.483 502.544 767.3 502.602 767.36 503.363C767.632 506.861 766.645 510.341 764.577 513.175C762.509 516.009 759.496 518.011 756.082 518.818C755.34 518.994 755.715 520.118 756.453 519.943Z" fill="white"/>
<path d="M751.451 552.08C744.838 548.131 739.957 541.836 737.78 534.448C737.565 533.716 736.44 534.088 736.655 534.819C738.935 542.503 744.028 549.044 750.918 553.138C751.575 553.528 752.105 552.467 751.451 552.08Z" fill="white"/>
<path d="M744.872 487.434C743.527 488.073 742.044 488.368 740.557 488.292C739.07 488.217 737.624 487.773 736.351 487.001C735.699 486.603 735.171 487.664 735.818 488.059C737.229 488.906 738.826 489.394 740.469 489.481C742.111 489.568 743.751 489.251 745.243 488.559C745.389 488.505 745.51 488.398 745.579 488.259C745.649 488.12 745.664 487.96 745.62 487.811C745.57 487.662 745.463 487.539 745.323 487.468C745.183 487.398 745.021 487.385 744.872 487.434Z" fill="white"/>
<path d="M653.152 514.676C653.552 514.936 653.952 515.196 654.352 515.466C659.71 518.99 664.774 522.943 669.492 527.286C669.862 527.616 670.232 527.956 670.592 528.296C681.847 538.882 691.04 551.465 697.702 565.406C700.348 570.956 702.567 576.699 704.342 582.586C706.792 590.716 708.802 599.726 713.652 606.376C714.15 607.075 714.691 607.743 715.272 608.376H759.102C759.202 608.326 759.302 608.286 759.402 608.236L761.152 608.316C761.082 608.006 761.002 607.686 760.932 607.376C760.892 607.196 760.842 607.016 760.802 606.836C760.772 606.716 760.742 606.596 760.722 606.486C760.712 606.446 760.702 606.406 760.692 606.376C760.672 606.266 760.642 606.166 760.622 606.066C760.182 604.276 759.728 602.486 759.262 600.696C759.262 600.686 759.262 600.686 759.252 600.676C755.662 587.046 750.902 573.596 744.252 561.296C744.052 560.926 743.852 560.546 743.632 560.176C740.604 554.648 737.129 549.378 733.242 544.416C731.105 541.706 728.832 539.106 726.432 536.626C720.218 530.23 713.037 524.851 705.152 520.686C689.432 512.386 671.232 509.206 654.432 514.276C654.002 514.406 653.582 514.536 653.152 514.676Z" fill="#F0F0F0"/>
<path d="M653.25 515.232C675.076 519.567 694.981 530.669 710.138 546.961C713.463 550.41 716.224 554.362 718.319 558.671C720.223 562.934 720.952 567.63 720.428 572.27C720.027 576.606 719.114 580.995 719.773 585.354C720.144 587.58 720.981 589.702 722.23 591.582C723.478 593.461 725.11 595.056 727.018 596.261C731.694 599.386 737.215 600.646 742.656 601.689C748.698 602.848 754.991 603.956 760.034 607.73C760.644 608.187 761.318 607.212 760.708 606.756C751.935 600.19 740.179 601.568 730.583 596.933C726.104 594.77 722.251 591.245 721.142 586.234C720.172 581.852 721.109 577.325 721.553 572.938C722.131 568.419 721.593 563.827 719.986 559.564C718.118 555.162 715.514 551.11 712.286 547.582C705.146 539.524 696.783 532.638 687.504 527.177C676.948 520.885 665.394 516.446 653.341 514.051C652.595 513.903 652.509 515.085 653.25 515.232Z" fill="white"/>
<path d="M705.566 541.427C707.954 538.513 709.229 534.845 709.162 531.078C709.096 527.311 707.692 523.69 705.202 520.863C704.697 520.292 703.786 521.051 704.293 521.623C706.616 524.251 707.923 527.624 707.978 531.132C708.033 534.64 706.832 538.052 704.592 540.753C704.106 541.34 705.083 542.011 705.566 541.427Z" fill="white"/>
<path d="M720.921 570.098C713.264 570.927 705.576 568.839 699.39 564.251C698.777 563.796 698.103 564.771 698.715 565.225C705.161 569.987 713.166 572.144 721.133 571.264C721.892 571.179 721.676 570.014 720.921 570.098Z" fill="white"/>
<path d="M676.746 522.443C676.057 523.763 675.051 524.892 673.818 525.727C672.585 526.562 671.164 527.078 669.683 527.228C668.923 527.303 669.139 528.468 669.894 528.394C671.53 528.22 673.099 527.648 674.463 526.729C675.828 525.809 676.946 524.569 677.72 523.118C677.805 522.987 677.836 522.829 677.809 522.676C677.781 522.523 677.696 522.386 677.571 522.294C677.441 522.205 677.282 522.171 677.128 522.199C676.973 522.227 676.836 522.315 676.746 522.443Z" fill="white"/>
<path d="M438.704 32.6014C437.647 33.9192 436.893 35.4526 436.493 37.0937C436.093 38.7348 436.058 40.4436 436.39 42.0997C436.722 43.7558 437.413 45.319 438.414 46.6792C439.415 48.0393 440.703 49.1634 442.186 49.9721L435.43 90.4705L454.931 81.8157L458.357 44.6847C459.551 42.1035 459.756 39.1742 458.934 36.4517C458.112 33.7293 456.32 31.403 453.898 29.9136C451.475 28.4242 448.59 27.8751 445.79 28.3705C442.99 28.8659 440.468 30.3713 438.704 32.6014Z" fill="#9E616A"/>
<path d="M614.147 592.883L598.201 592.882L590.615 531.376L614.15 531.377L614.147 592.883Z" fill="#9E616A"/>
<path d="M618.214 608.34L566.797 608.338V607.688C566.797 602.38 568.906 597.29 572.659 593.537C576.412 589.784 581.502 587.676 586.81 587.676H586.811L618.215 587.677L618.214 608.34Z" fill="#2F2E41"/>
<path d="M507.147 592.883L491.201 592.882L483.615 531.376L507.15 531.377L507.147 592.883Z" fill="#9E616A"/>
<path d="M511.214 608.34L459.797 608.338V607.688C459.797 602.38 461.906 597.29 465.659 593.537C469.412 589.784 474.502 587.676 479.81 587.676H479.811L511.215 587.677L511.214 608.34Z" fill="#2F2E41"/>
<path d="M500.5 305.876L494.54 313.715C494.54 313.715 494 317.376 484.959 347.201L480 571.376H510L550.1 392.01L591.718 574.974L617.724 576.509L616.501 368.55C616.501 368.55 619.786 325.767 608.143 317.821C596.5 309.876 500.5 305.876 500.5 305.876Z" fill="#2F2E41"/>
<path d="M540.732 117.493C558.118 117.493 572.212 103.399 572.212 86.0129C572.212 68.6267 558.118 54.5324 540.732 54.5324C523.345 54.5324 509.251 68.6267 509.251 86.0129C509.251 103.399 523.345 117.493 540.732 117.493Z" fill="#9E616A"/>
<path d="M572.402 90.9415L571.882 89.9019C571.078 88.294 564.421 74.9268 563.586 71.4898L555.209 72.4752L533.393 72.4786L536.424 67.9317L528.41 68.9771C525.48 69.3331 522.679 70.3889 520.243 72.0553C518.749 73.0481 517.486 74.3506 516.539 75.8746C513.676 80.7769 509.303 88.7955 509.259 88.8761L508.84 89.6432L505.206 83.5294C505.158 83.2921 500.654 59.7984 515.728 51.8307C516.506 50.2516 523.131 37.8307 538.789 38.669C540.51 36.7069 542.935 35.5016 545.538 35.314C549.114 35.1275 552.826 37.0059 556.554 40.9205C561.505 46.1197 568.287 53.2398 572.388 61.1456L573.52 62.7598C575.128 65.0701 575.924 67.8482 575.784 70.6592C576.655 75.1456 576.345 79.7813 574.885 84.1119L572.402 90.9415Z" fill="#2F2E41"/>
<path d="M564.718 123.417L582.138 133.045L616.355 142.626L606.142 232.171L608 320.376C608 320.376 550.079 360.054 494.54 313.715V202.691L497.825 142.626C497.825 142.626 511.116 138.85 517.808 145.363L530.5 128.876L564.718 123.417Z" fill="#E4E4E4"/>
<path d="M505.5 150.876L497.825 142.626L455.531 137.835L459.5 72.876L436.441 56.426L419.5 147.876L497.758 202.691L505.5 150.876Z" fill="#E4E4E4"/>
<path d="M591.233 349.524C590.918 347.865 590.97 346.156 591.386 344.519C591.802 342.882 592.573 341.356 593.642 340.049C594.712 338.742 596.055 337.685 597.578 336.954C599.1 336.222 600.764 335.833 602.453 335.814L615.475 296.875L628.642 313.664L614.258 348.066C614.102 350.906 612.909 353.59 610.907 355.609C608.904 357.628 606.231 358.842 603.393 359.022C600.555 359.202 597.749 358.334 595.508 356.583C593.267 354.833 591.746 352.321 591.233 349.524Z" fill="#9E616A"/>
<path d="M603.5 152.876L616.355 142.626C616.355 142.626 629.5 149.876 633.5 162.876C637.5 175.876 644.5 249.876 644.5 249.876L625.5 344.876L604.252 330.14L614.5 254.876L596.5 199.876L603.5 152.876Z" fill="#E4E4E4"/>
<path d="M442.345 0H118.143V78.7822H442.345V0Z" fill="#E6E6E6"/>
<path d="M126.649 70.2755H433.839V8.50674H126.649V70.2755Z" fill="white"/>
<path d="M185.159 62.9235C198.155 62.9235 208.691 52.3877 208.691 39.3911C208.691 26.3946 198.155 15.8588 185.159 15.8588C172.162 15.8588 161.626 26.3946 161.626 39.3911C161.626 52.3877 172.162 62.9235 185.159 62.9235Z" fill="#298960"/>
<path d="M398.861 30.1828H241.432V35.2985H398.861V30.1828Z" fill="#298960"/>
<path d="M398.861 43.4837H241.432V48.5994H398.861V43.4837Z" fill="#298960"/>
<path d="M0 119.742L274.314 139.751V211.775L0 206.681V119.742Z" fill="#E6E6E6"/>
<path d="M8.64124 197.506L268.325 203.857V147.125L8.64124 129.709V197.506Z" fill="white"/>
<path d="M65.6366 141.311C68.6347 141.505 71.5544 142.35 74.192 143.788C76.8375 145.235 79.1843 147.17 81.1078 149.492C83.1067 151.893 84.6724 154.625 85.7348 157.564C86.8557 160.655 87.4277 163.919 87.4249 167.208C87.4367 170.447 86.8642 173.662 85.7348 176.697C84.6873 179.517 83.1175 182.113 81.1078 184.35C79.178 186.501 76.8232 188.227 74.192 189.421C71.5056 190.627 68.58 191.206 65.6366 191.115C62.6243 191.019 59.6701 190.26 56.9848 188.892C54.2647 187.501 51.8405 185.595 49.8467 183.28C47.7548 180.86 46.1125 178.086 44.9974 175.088C43.8141 171.922 43.2094 168.569 43.212 165.189C43.1989 161.859 43.8043 158.555 44.9974 155.446C46.0982 152.575 47.7455 149.945 49.8479 147.701C51.8504 145.563 54.2832 143.874 56.986 142.744C59.7224 141.612 62.6815 141.122 65.6366 141.311Z" fill="#F1FFA8"/>
<path d="M116.728 159.132L243.116 165.719V170.506L116.728 164.365V159.132Z" fill="#F1FFA8"/>
<path d="M116.728 172.739L243.116 178.165V182.952L116.728 177.972V172.739Z" fill="#F1FFA8"/>
<path d="M0 266.055L274.314 260.962V332.986L0 352.995V266.055Z" fill="#E6E6E6"/>
<path d="M8.64124 343.027L268.325 325.61V268.884L8.64124 275.236V343.027Z" fill="white"/>
<path d="M43.2309 306.4C43.3641 303.023 44.1039 299.696 45.415 296.581C46.6462 293.645 48.3965 290.954 50.5818 288.639C52.6618 286.427 55.1558 284.645 57.9223 283.394C60.6583 282.162 63.634 281.553 66.634 281.613C69.5782 281.673 72.4702 282.401 75.0918 283.743C77.6695 285.073 79.9466 286.919 81.7818 289.165C83.6958 291.505 85.1569 294.181 86.0901 297.056C87.095 300.146 87.5383 303.391 87.3991 306.637C87.273 309.922 86.5732 313.16 85.3314 316.205C84.157 319.091 82.485 321.749 80.3916 324.057C78.381 326.283 75.9613 328.103 73.2641 329.416C70.5705 330.723 67.6222 331.421 64.6287 331.459C61.6645 331.495 58.7314 330.851 56.0545 329.578C53.4018 328.305 51.0457 326.489 49.1387 324.248C47.1333 321.894 45.5981 319.176 44.6164 316.244C43.5533 313.076 43.0836 309.739 43.2309 306.4Z" fill="#F1FFA8"/>
<path d="M116.728 294.765L243.116 289.785V294.572L116.728 299.997V294.765Z" fill="#F1FFA8"/>
<path d="M116.728 308.37L243.116 302.231V307.018L116.728 313.604V308.37Z" fill="#F1FFA8"/>
<path d="M788.382 609.376H407.382C407.117 609.376 406.862 609.271 406.675 609.083C406.487 608.896 406.382 608.641 406.382 608.376C406.382 608.111 406.487 607.856 406.675 607.669C406.862 607.481 407.117 607.376 407.382 607.376H788.382C788.647 607.376 788.901 607.481 789.089 607.669C789.277 607.856 789.382 608.111 789.382 608.376C789.382 608.641 789.277 608.896 789.089 609.083C788.901 609.271 788.647 609.376 788.382 609.376Z" fill="#CACACA"/>
</g>
<defs>
<clipPath id="clip0_1_2">
<rect width="789.382" height="609.376" fill="white"/>
</clipPath>
</defs>
</svg>
